<svg width="91" height="29" viewBox="0 0 91 29" fill="none" xmlns="http://www.w3.org/2000/svg">
<path d="M10.4584 4.64087V12.5389H3.84955V4.64087H0.711914V23.4943H3.84955V15.8527H10.4584V23.4943H13.5961V4.64087H10.4584Z" fill="#33475B"/>
<path d="M23.6377 17.3999C23.6377 18.1555 23.3643 18.8801 22.8775 19.4144C22.3907 19.9487 21.7304 20.2488 21.042 20.2488C20.3536 20.2488 19.6933 19.9487 19.2065 19.4144C18.7197 18.8801 18.4463 18.1555 18.4463 17.3999V9.32471H15.47V17.3999C15.47 19.0203 16.0565 20.5743 17.1004 21.72C18.1444 22.8658 19.5603 23.5095 21.0366 23.5095C22.513 23.5095 23.9288 22.8658 24.9728 21.72C26.0167 20.5743 26.6032 19.0203 26.6032 17.3999V9.32471H23.6377V17.3999Z" fill="#33475B"/>
<path d="M45.689 10.1565C45.689 8.50131 46.6867 7.97657 47.7797 7.97657C48.6606 7.97657 49.8243 8.71222 50.5853 9.60477L52.5346 7.08402C51.5615 5.63972 49.5876 4.64087 47.9719 4.64087C44.7435 4.64087 42.4084 6.71619 42.4084 10.1565C42.4084 16.5394 49.5169 14.5147 49.5169 18.0866C49.5169 19.1884 48.5422 20.1619 47.4261 20.1619C45.6659 20.1619 45.0956 19.2171 44.287 18.2182L42.124 20.6867C43.5075 22.5511 45.2139 23.4976 47.2586 23.4976C50.3255 23.4976 52.7929 21.397 52.7929 18.1136C52.7929 11.0271 45.6844 13.229 45.6844 10.1565" fill="#33475B"/>
<path d="M89.6649 20.4825C87.9063 20.4825 87.4066 19.6473 87.4066 18.3684V12.7077H90.14V9.83932H87.4066V6.05481L84.3889 7.54128V19.072C84.3889 22.0213 86.2429 23.5078 88.7856 23.5078C89.1844 23.5157 89.5829 23.4807 89.9755 23.4032L90.7118 20.4285C90.3798 20.4538 89.9985 20.4792 89.6649 20.4792" fill="#33475B"/>
<path d="M34.9661 9.41917C33.4918 9.41917 32.4634 9.88822 31.4688 10.9596V4.75391H28.4879V16.2559C28.4879 20.5618 31.3242 23.5111 34.5111 23.5111C38.0469 23.5111 41.1568 20.5095 41.1568 16.4668C41.1568 12.4748 38.2944 9.42085 34.9661 9.42085V9.41917ZM34.9477 20.2193C34.2788 20.2193 33.6249 20.0016 33.0687 19.5937C32.5125 19.1858 32.079 18.6061 31.823 17.9278C31.5671 17.2496 31.5001 16.5032 31.6306 15.7832C31.7611 15.0631 32.0832 14.4017 32.5562 13.8826C33.0292 13.3634 33.6318 13.0099 34.2879 12.8667C34.9439 12.7235 35.6239 12.797 36.2419 13.0779C36.8599 13.3589 37.3881 13.8346 37.7598 14.4451C38.1314 15.0555 38.3297 15.7732 38.3297 16.5073C38.3297 17.4918 37.9734 18.4359 37.3392 19.1321C36.7049 19.8282 35.8447 20.2193 34.9477 20.2193Z" fill="#33475B"/>
<path d="M67.3325 16.2948C67.3325 12.2454 64.2287 9.25049 60.6867 9.25049C57.4999 9.25049 54.6636 12.1998 54.6636 16.5057V28.0144H57.6444V21.8003C58.6375 22.87 59.6675 23.3407 61.1402 23.3407C64.4685 23.3407 67.331 20.2885 67.331 16.2948H67.3325ZM64.51 16.2543C64.51 16.9884 64.3117 17.7061 63.94 18.3165C63.5684 18.927 63.0402 19.4027 62.4222 19.6837C61.8042 19.9646 61.1242 20.0381 60.4681 19.8949C59.8121 19.7517 59.2094 19.3982 58.7365 18.879C58.2635 18.3599 57.9414 17.6985 57.8109 16.9784C57.6804 16.2584 57.7473 15.512 58.0033 14.8338C58.2593 14.1555 58.6928 13.5758 59.249 13.1679C59.8051 12.76 60.459 12.5423 61.1279 12.5423C62.0249 12.5423 62.8852 12.9334 63.5194 13.6295C64.1537 14.3257 64.51 15.2698 64.51 16.2543Z" fill="#33475B"/>
<path d="M76.9623 9.09207V5.8053C77.3581 5.60234 77.6932 5.28019 77.9286 4.87634C78.164 4.47249 78.2901 4.00356 78.2921 3.52413V3.4482C78.2921 2.77697 78.0492 2.13323 77.6167 1.6586C77.1842 1.18397 76.5977 0.917321 75.9861 0.917321H75.917C75.3054 0.917321 74.7189 1.18397 74.2864 1.6586C73.854 2.13323 73.611 2.77697 73.611 3.4482V3.52413C73.613 4.00356 73.7391 4.47249 73.9745 4.87634C74.2099 5.28019 74.545 5.60234 74.9408 5.8053V9.09207C73.8033 9.28306 72.7321 9.80051 71.8354 10.592L63.6231 3.57137C63.6813 3.33986 63.7122 3.10116 63.7154 2.86104C63.7163 2.297 63.5648 1.74534 63.28 1.27583C62.9952 0.806315 62.5899 0.440047 62.1155 0.223351C61.641 0.00665611 61.1186 -0.0507316 60.6144 0.0584472C60.1102 0.167626 59.6469 0.438466 59.283 0.83671C58.919 1.23495 58.6709 1.74271 58.5699 2.29575C58.469 2.8488 58.5197 3.42229 58.7157 3.94368C58.9118 4.46506 59.2443 4.91093 59.6712 5.22489C60.0982 5.53884 60.6003 5.70677 61.1143 5.70744C61.5636 5.70523 62.0047 5.57376 62.3933 5.32612L70.4811 12.2321C69.7543 13.4367 69.3752 14.8537 69.393 16.2984C69.4108 17.743 69.8248 19.1483 70.581 20.3309L68.1213 23.0305C67.9224 22.9608 67.7152 22.9238 67.5064 22.9208C67.0845 22.9211 66.6721 23.0587 66.3215 23.3162C65.9708 23.5737 65.6976 23.9394 65.5363 24.3673C65.3749 24.7952 65.3328 25.2659 65.4152 25.72C65.4976 26.1741 65.7008 26.5913 65.9991 26.9187C66.2974 27.2461 66.6775 27.4691 67.0913 27.5596C67.505 27.65 67.9339 27.6037 68.3238 27.4267C68.7136 27.2496 69.0469 26.9497 69.2814 26.5649C69.516 26.18 69.6414 25.7275 69.6417 25.2644C69.639 25.0352 69.6054 24.8078 69.5418 24.5895L71.9753 21.9186C72.7688 22.5888 73.6916 23.0508 74.6729 23.2692C75.6542 23.4875 76.6681 23.4565 77.6368 23.1785C78.6055 22.9004 79.5034 22.3827 80.2616 21.6651C81.0199 20.9474 81.6185 20.0487 82.0115 19.038C82.4045 18.0272 82.5815 16.9311 82.5289 15.8337C82.4764 14.7362 82.1957 13.6665 81.7083 12.7066C81.221 11.7466 80.5399 10.9217 79.7173 10.2952C78.8946 9.6687 77.9523 9.25715 76.9623 9.09207ZM75.9539 19.9006C75.2882 19.9 74.6376 19.6827 74.0844 19.2764C73.5312 18.87 73.1002 18.2928 72.8458 17.6176C72.5914 16.9425 72.5251 16.1997 72.6552 15.4832C72.7853 14.7667 73.1061 14.1086 73.5769 13.5921C74.0477 13.0756 74.6474 12.7239 75.3003 12.5814C75.9532 12.4389 76.6299 12.512 77.245 12.7916C77.86 13.0711 78.3857 13.5444 78.7557 14.1518C79.1257 14.7591 79.3233 15.4732 79.3236 16.2039C79.3236 17.1838 78.9689 18.1237 78.3376 18.8167C77.7062 19.5096 76.8498 19.8989 75.9569 19.8989" fill="#FF7A59"/>
</svg>
